<svg width="35" height="35" viewBox="0 0 35 35" fill="none" xmlns="http://www.w3.org/2000/svg">
<path d="M8.715 26.2333C7.16722 26.2333 5.82167 25.8833 4.67833 25.1833C3.54278 24.4756 2.66389 23.4761 2.04167 22.185C1.42722 20.8939 1.12 19.3694 1.12 17.6117C1.12 15.8228 1.44278 14.2789 2.08833 12.98C2.74167 11.6733 3.65167 10.6661 4.81833 9.95833C5.985 9.25056 7.34611 8.89667 8.90167 8.89667C9.905 8.89667 10.8189 9.05611 11.6433 9.375C12.4678 9.69389 13.1833 10.1294 13.79 10.6817C14.4044 11.2339 14.8828 11.86 15.225 12.56C15.575 13.2522 15.7656 13.9717 15.7967 14.7183H12.2033C12.1022 14.1817 11.9 13.6917 11.5967 13.2483C11.3011 12.805 10.92 12.4511 10.4533 12.1867C9.98667 11.9144 9.44222 11.7783 8.82 11.7783C8.07333 11.7783 7.39667 11.9728 6.79 12.3617C6.18333 12.7428 5.705 13.3533 5.355 14.1933C5.005 15.0333 4.83 16.1417 4.83 17.5183C4.83 18.6306 4.94278 19.5561 5.16833 20.295C5.40167 21.0339 5.71278 21.6211 6.10167 22.0567C6.49056 22.4844 6.93389 22.7878 7.43167 22.9667C7.92944 23.1456 8.43889 23.235 8.96 23.235C9.45778 23.235 9.90111 23.1533 10.29 22.99C10.6867 22.8189 11.025 22.6011 11.305 22.3367C11.585 22.0722 11.8067 21.7844 11.97 21.4733C12.1333 21.1544 12.2383 20.8433 12.285 20.54L12.4133 19.5133H8.925V17.1567L15.9833 17.1917V26H13.6617V23.795C13.3739 24.1761 13.0161 24.5572 12.5883 24.9383C12.1683 25.3117 11.6433 25.6228 11.0133 25.8717C10.3911 26.1128 9.625 26.2333 8.715 26.2333ZM19.5951 9.13C19.6806 9.13 19.9179 9.13 20.3067 9.13C20.7034 9.13 21.1662 9.13 21.6951 9.13C22.2317 9.13 22.7645 9.13389 23.2934 9.14167C23.8301 9.14167 24.2773 9.14556 24.6351 9.15333C26.6806 9.2 28.349 9.56556 29.6401 10.25C30.9312 10.9344 31.8762 11.8911 32.4751 13.12C33.0817 14.3489 33.3851 15.8033 33.3851 17.4833C33.3851 19.2333 33.0662 20.7461 32.4284 22.0217C31.7906 23.2894 30.8145 24.2694 29.5001 24.9617C28.1934 25.6539 26.5329 26 24.5184 26H19.5951V9.13ZM23.0251 11.8833V23.2467H24.5884C25.5529 23.2467 26.4279 23.06 27.2134 22.6867C28.0067 22.3133 28.6406 21.7028 29.1151 20.855C29.5895 20.0072 29.8267 18.8756 29.8267 17.46C29.8267 16.1456 29.6167 15.08 29.1967 14.2633C28.7767 13.4389 28.1779 12.8361 27.4001 12.455C26.6223 12.0739 25.7006 11.8833 24.6351 11.8833H23.0251Z" fill="url(#paint0_linear_31_3)"/>
<defs>
<linearGradient id="paint0_linear_31_3" x1="17.5" y1="4" x2="17.5" y2="31" gradientUnits="userSpaceOnUse">
<stop stop-color="#F178E5"/>
<stop offset="1" stop-color="#802CB0"/>
</linearGradient>
</defs>
</svg>
